<svg xmlns="http://www.w3.org/2000/svg" viewBox="0 0 800 320" fill="none">
  <defs>
    <linearGradient id="wnbg" x1="400" y1="0" x2="800" y2="320" gradientUnits="userSpaceOnUse">
      <stop offset="0%" stop-color="#1a0a0e"/>
      <stop offset="100%" stop-color="#4c0519"/>
    </linearGradient>
    <filter id="glow2">
      <feGaussianBlur stdDeviation="2" result="blur"/>
      <feMerge><feMergeNode in="blur"/><feMergeNode in="SourceGraphic"/></feMerge>
    </filter>
  </defs>

  <!-- Background + glow border -->
  <rect width="800" height="320" rx="12" fill="url(#wnbg)"/>
  <rect x="1" y="1" width="798" height="318" rx="12" fill="none" stroke="#dc2626" stroke-width="1.5" opacity="0.35" filter="url(#glow2)"/>

  <!-- Corner dots -->
  <circle cx="720" cy="16" r="2" fill="#dc2626" opacity="0.2"/><circle cx="740" cy="16" r="2" fill="#dc2626" opacity="0.25"/><circle cx="760" cy="16" r="2" fill="#dc2626" opacity="0.3"/><circle cx="780" cy="16" r="2" fill="#dc2626" opacity="0.35"/>
  <circle cx="740" cy="36" r="2" fill="#dc2626" opacity="0.15"/><circle cx="760" cy="36" r="2" fill="#dc2626" opacity="0.2"/><circle cx="780" cy="36" r="2" fill="#dc2626" opacity="0.25"/>

  <!-- Title -->
  <text x="400" y="38" font-family="Segoe UI, system-ui, sans-serif" font-size="20" font-weight="700" fill="#ffffff" text-anchor="middle">Where To Next?</text>
  <text x="400" y="58" font-family="Segoe UI, system-ui, sans-serif" font-size="12" fill="#c4a0a6" text-anchor="middle">You just finished Day 12: Subqueries &amp; Temp Tables</text>

  <!-- Central question -->
  <rect x="270" y="76" width="260" height="40" rx="8" fill="#dc2626" opacity="0.15"/>
  <rect x="270" y="76" width="260" height="40" rx="8" fill="none" stroke="#dc2626" stroke-width="1.5"/>
  <text x="400" y="101" font-family="Segoe UI, system-ui, sans-serif" font-size="13" font-weight="600" fill="#ffffff" text-anchor="middle">What do you want to do?</text>

  <!-- Vertical trunk line from bottom-centre of question box -->
  <line x1="400" y1="116" x2="400" y2="138" stroke="#ef4444" stroke-width="1.5"/>

  <!-- Horizontal crossbar at y=138 spanning all 4 branch points -->
  <line x1="120" y1="138" x2="680" y2="138" stroke="#ef4444" stroke-width="1.5"/>

  <!-- 4 vertical drops from crossbar to each box -->
  <!-- Drop to Continue (middle-left) -->
  <line x1="160" y1="138" x2="160" y2="160" stroke="#ef4444" stroke-width="1.5"/>
  <!-- Drop to Apply (middle-right) -->
  <line x1="610" y1="138" x2="610" y2="160" stroke="#ef4444" stroke-width="1.5"/>
  <!-- Drop to Brush up (far-left) - goes down to bottom row -->
  <polyline points="120,138 120,240" fill="none" stroke="#ef4444" stroke-width="1" opacity="0.6"/>
  <!-- Drop to Skip ahead (far-right) - goes down to bottom row -->
  <polyline points="680,138 680,240" fill="none" stroke="#ef4444" stroke-width="1" opacity="0.6"/>

  <!-- Small dots at branch points on crossbar -->
  <circle cx="160" cy="138" r="3" fill="#ef4444"/>
  <circle cx="610" cy="138" r="3" fill="#ef4444"/>
  <circle cx="120" cy="138" r="3" fill="#ef4444" opacity="0.6"/>
  <circle cx="680" cy="138" r="3" fill="#ef4444" opacity="0.6"/>
  <circle cx="400" cy="138" r="3" fill="#ef4444"/>

  <!-- Middle row: Continue + Apply -->
  <rect x="40" y="160" width="240" height="52" rx="8" fill="#dc2626"/>
  <text x="160" y="182" font-family="Segoe UI, system-ui, sans-serif" font-size="12" font-weight="700" fill="#ffffff" text-anchor="middle">Continue to Day 13</text>
  <text x="160" y="202" font-family="Segoe UI, system-ui, sans-serif" font-size="11" fill="#fca5a5" text-anchor="middle">CTEs - the cleaner way to write subqueries</text>

  <rect x="460" y="160" width="300" height="52" rx="8" fill="#dc2626"/>
  <text x="610" y="182" font-family="Segoe UI, system-ui, sans-serif" font-size="12" font-weight="700" fill="#ffffff" text-anchor="middle">Apply it: Day 14 Project</text>
  <text x="610" y="202" font-family="Segoe UI, system-ui, sans-serif" font-size="11" fill="#fca5a5" text-anchor="middle">Fleet Intelligence Pipeline (uses Week 2)</text>

  <!-- Bottom row: Brush up + Skip ahead -->
  <rect x="20" y="240" width="240" height="52" rx="8" fill="#dc2626" opacity="0.15"/>
  <rect x="20" y="240" width="240" height="52" rx="8" fill="none" stroke="#dc2626" stroke-width="1"/>
  <text x="140" y="262" font-family="Segoe UI, system-ui, sans-serif" font-size="11" font-weight="600" fill="#fca5a5" text-anchor="middle">Need to brush up?</text>
  <text x="140" y="280" font-family="Segoe UI, system-ui, sans-serif" font-size="11" fill="#c4a0a6" text-anchor="middle">Day 4 (GROUP BY) or Day 11 (CASE)</text>

  <rect x="540" y="240" width="240" height="52" rx="8" fill="#dc2626" opacity="0.15"/>
  <rect x="540" y="240" width="240" height="52" rx="8" fill="none" stroke="#dc2626" stroke-width="1"/>
  <text x="660" y="262" font-family="Segoe UI, system-ui, sans-serif" font-size="11" font-weight="600" fill="#fca5a5" text-anchor="middle">Ready for something new?</text>
  <text x="660" y="280" font-family="Segoe UI, system-ui, sans-serif" font-size="11" fill="#c4a0a6" text-anchor="middle">Day 15: JOINs (fresh topic)</text>
</svg>
