<svg xmlns="http://www.w3.org/2000/svg" viewBox="0 0 800 320" fill="none">
  <defs>
    <linearGradient id="wnbg" x1="400" y1="0" x2="800" y2="320" gradientUnits="userSpaceOnUse">
      <stop offset="0%" stop-color="#1a0a0e"/>
      <stop offset="100%" stop-color="#4c0519"/>
    </linearGradient>
    <filter id="glow2">
      <feGaussianBlur stdDeviation="2" result="blur"/>
      <feMerge><feMergeNode in="blur"/><feMergeNode in="SourceGraphic"/></feMerge>
    </filter>
  </defs>

  <!-- Background + glow border -->
  <rect width="800" height="320" rx="12" fill="url(#wnbg)"/>
  <rect x="1" y="1" width="798" height="318" rx="12" fill="none" stroke="#dc2626" stroke-width="1.5" opacity="0.35" filter="url(#glow2)"/>

  <!-- Corner dots -->
  <circle cx="720" cy="16" r="2" fill="#dc2626" opacity="0.2"/><circle cx="740" cy="16" r="2" fill="#dc2626" opacity="0.25"/><circle cx="760" cy="16" r="2" fill="#dc2626" opacity="0.3"/><circle cx="780" cy="16" r="2" fill="#dc2626" opacity="0.35"/>
  <circle cx="740" cy="36" r="2" fill="#dc2626" opacity="0.15"/><circle cx="760" cy="36" r="2" fill="#dc2626" opacity="0.2"/><circle cx="780" cy="36" r="2" fill="#dc2626" opacity="0.25"/>

  <!-- Title -->
  <text x="400" y="38" font-family="Segoe UI, system-ui, sans-serif" font-size="20" font-weight="700" fill="#ffffff" text-anchor="middle">Where To Next?</text>
  <text x="400" y="58" font-family="Segoe UI, system-ui, sans-serif" font-size="12" fill="#c4a0a6" text-anchor="middle">You just finished Day 12: Subqueries &amp; Temp Tables</text>

  <!-- Central question -->
  <rect x="270" y="76" width="260" height="40" rx="8" fill="#dc2626" opacity="0.15"/>
  <rect x="270" y="76" width="260" height="40" rx="8" fill="none" stroke="#dc2626" stroke-width="1.5"/>
  <text x="400" y="101" font-family="Segoe UI, system-ui, sans-serif" font-size="13" font-weight="600" fill="#ffffff" text-anchor="middle">What do you want to do?</text>

  <!-- Lines to middle row (short, direct) -->
  <line x1="340" y1="116" x2="160" y2="155" stroke="#ef4444" stroke-width="1.5"/>
  <line x1="460" y1="116" x2="580" y2="155" stroke="#ef4444" stroke-width="1.5"/>

  <!-- Middle row: Continue + Apply -->
  <rect x="40" y="155" width="240" height="52" rx="8" fill="#dc2626"/>
  <text x="160" y="177" font-family="Segoe UI, system-ui, sans-serif" font-size="12" font-weight="700" fill="#ffffff" text-anchor="middle">Continue to Day 13</text>
  <text x="160" y="197" font-family="Segoe UI, system-ui, sans-serif" font-size="11" fill="#fca5a5" text-anchor="middle">CTEs - the cleaner way to write subqueries</text>

  <rect x="460" y="155" width="300" height="52" rx="8" fill="#dc2626"/>
  <text x="610" y="177" font-family="Segoe UI, system-ui, sans-serif" font-size="12" font-weight="700" fill="#ffffff" text-anchor="middle">Apply it: Day 14 Project</text>
  <text x="610" y="197" font-family="Segoe UI, system-ui, sans-serif" font-size="11" fill="#fca5a5" text-anchor="middle">Fleet Intelligence Pipeline (uses Week 2)</text>

  <!-- Lines to bottom row: routed around the middle boxes -->
  <!-- Left: goes down from question, hugs left edge, then across to bottom-left box -->
  <polyline points="290,116 20,116 20,262 40,262" fill="none" stroke="#ef4444" stroke-width="1" opacity="0.6"/>
  <!-- Right: goes down from question, hugs right edge, then across to bottom-right box -->
  <polyline points="510,116 780,116 780,262 760,262" fill="none" stroke="#ef4444" stroke-width="1" opacity="0.6"/>

  <!-- Bottom row: Brush up + Skip ahead -->
  <rect x="40" y="236" width="240" height="52" rx="8" fill="#dc2626" opacity="0.15"/>
  <rect x="40" y="236" width="240" height="52" rx="8" fill="none" stroke="#dc2626" stroke-width="1"/>
  <text x="160" y="258" font-family="Segoe UI, system-ui, sans-serif" font-size="11" font-weight="600" fill="#fca5a5" text-anchor="middle">Need to brush up?</text>
  <text x="160" y="276" font-family="Segoe UI, system-ui, sans-serif" font-size="11" fill="#c4a0a6" text-anchor="middle">Day 4 (GROUP BY) or Day 11 (CASE)</text>

  <rect x="520" y="236" width="240" height="52" rx="8" fill="#dc2626" opacity="0.15"/>
  <rect x="520" y="236" width="240" height="52" rx="8" fill="none" stroke="#dc2626" stroke-width="1"/>
  <text x="640" y="258" font-family="Segoe UI, system-ui, sans-serif" font-size="11" font-weight="600" fill="#fca5a5" text-anchor="middle">Ready for something new?</text>
  <text x="640" y="276" font-family="Segoe UI, system-ui, sans-serif" font-size="11" fill="#c4a0a6" text-anchor="middle">Day 15: JOINs (fresh topic)</text>
</svg>
