<svg xmlns="http://www.w3.org/2000/svg" viewBox="0 0 800 120" fill="none">
  <!-- V10: Decorative dot grid in top-right corner -->
  <rect width="800" height="120" rx="12" fill="#1a0a0e"/>
  <!-- Dot grid decoration -->
  <circle cx="680" cy="16" r="2" fill="#dc2626" opacity="0.2"/>
  <circle cx="700" cy="16" r="2" fill="#dc2626" opacity="0.25"/>
  <circle cx="720" cy="16" r="2" fill="#dc2626" opacity="0.3"/>
  <circle cx="740" cy="16" r="2" fill="#dc2626" opacity="0.35"/>
  <circle cx="760" cy="16" r="2" fill="#dc2626" opacity="0.4"/>
  <circle cx="780" cy="16" r="2" fill="#dc2626" opacity="0.45"/>
  <circle cx="680" cy="36" r="2" fill="#dc2626" opacity="0.15"/>
  <circle cx="700" cy="36" r="2" fill="#dc2626" opacity="0.2"/>
  <circle cx="720" cy="36" r="2" fill="#dc2626" opacity="0.25"/>
  <circle cx="740" cy="36" r="2" fill="#dc2626" opacity="0.3"/>
  <circle cx="760" cy="36" r="2" fill="#dc2626" opacity="0.35"/>
  <circle cx="780" cy="36" r="2" fill="#dc2626" opacity="0.4"/>
  <circle cx="680" cy="56" r="2" fill="#dc2626" opacity="0.1"/>
  <circle cx="700" cy="56" r="2" fill="#dc2626" opacity="0.15"/>
  <circle cx="720" cy="56" r="2" fill="#dc2626" opacity="0.2"/>
  <circle cx="740" cy="56" r="2" fill="#dc2626" opacity="0.25"/>
  <circle cx="760" cy="56" r="2" fill="#dc2626" opacity="0.3"/>
  <circle cx="780" cy="56" r="2" fill="#dc2626" opacity="0.35"/>
  <circle cx="700" cy="76" r="2" fill="#dc2626" opacity="0.1"/>
  <circle cx="720" cy="76" r="2" fill="#dc2626" opacity="0.15"/>
  <circle cx="740" cy="76" r="2" fill="#dc2626" opacity="0.2"/>
  <circle cx="760" cy="76" r="2" fill="#dc2626" opacity="0.25"/>
  <circle cx="780" cy="76" r="2" fill="#dc2626" opacity="0.3"/>
  <circle cx="720" cy="96" r="2" fill="#dc2626" opacity="0.1"/>
  <circle cx="740" cy="96" r="2" fill="#dc2626" opacity="0.15"/>
  <circle cx="760" cy="96" r="2" fill="#dc2626" opacity="0.2"/>
  <circle cx="780" cy="96" r="2" fill="#dc2626" opacity="0.25"/>
  <!-- Text -->
  <text x="40" y="44" font-family="Segoe UI, system-ui, sans-serif" font-size="14" font-weight="600" fill="#ef4444" letter-spacing="2">WEEK 1</text>
  <text x="40" y="76" font-family="Segoe UI, system-ui, sans-serif" font-size="28" font-weight="700" fill="#ffffff">SQL Fundamentals</text>
  <text x="40" y="100" font-family="Segoe UI, system-ui, sans-serif" font-size="13" fill="#c4a0a6">Days 1-7  |  SELECT, WHERE, ORDER BY, GROUP BY, INSERT/UPDATE/DELETE, Keys, Project</text>
</svg>
