<svg xmlns="http://www.w3.org/2000/svg" viewBox="0 0 800 280" fill="none">
  <defs>
    <linearGradient id="cbg" x1="400" y1="0" x2="800" y2="280" gradientUnits="userSpaceOnUse">
      <stop offset="0%" stop-color="#1a0a0e"/>
      <stop offset="100%" stop-color="#4c0519"/>
    </linearGradient>
    <filter id="glow">
      <feGaussianBlur stdDeviation="2" result="blur"/>
      <feMerge><feMergeNode in="blur"/><feMergeNode in="SourceGraphic"/></feMerge>
    </filter>
  </defs>

  <!-- V9: Split-tone background -->
  <rect width="800" height="280" rx="12" fill="url(#cbg)"/>

  <!-- V8: Glow border -->
  <rect x="1" y="1" width="798" height="278" rx="12" fill="none" stroke="#dc2626" stroke-width="1.5" opacity="0.35" filter="url(#glow)"/>

  <!-- V10: Corner dot grid -->
  <circle cx="640" cy="16" r="2" fill="#dc2626" opacity="0.12"/><circle cx="660" cy="16" r="2" fill="#dc2626" opacity="0.15"/><circle cx="680" cy="16" r="2" fill="#dc2626" opacity="0.18"/><circle cx="700" cy="16" r="2" fill="#dc2626" opacity="0.22"/><circle cx="720" cy="16" r="2" fill="#dc2626" opacity="0.26"/><circle cx="740" cy="16" r="2" fill="#dc2626" opacity="0.3"/><circle cx="760" cy="16" r="2" fill="#dc2626" opacity="0.35"/><circle cx="780" cy="16" r="2" fill="#dc2626" opacity="0.4"/>
  <circle cx="660" cy="36" r="2" fill="#dc2626" opacity="0.1"/><circle cx="680" cy="36" r="2" fill="#dc2626" opacity="0.14"/><circle cx="700" cy="36" r="2" fill="#dc2626" opacity="0.18"/><circle cx="720" cy="36" r="2" fill="#dc2626" opacity="0.22"/><circle cx="740" cy="36" r="2" fill="#dc2626" opacity="0.26"/><circle cx="760" cy="36" r="2" fill="#dc2626" opacity="0.3"/><circle cx="780" cy="36" r="2" fill="#dc2626" opacity="0.35"/>
  <circle cx="680" cy="56" r="2" fill="#dc2626" opacity="0.08"/><circle cx="700" cy="56" r="2" fill="#dc2626" opacity="0.12"/><circle cx="720" cy="56" r="2" fill="#dc2626" opacity="0.16"/><circle cx="740" cy="56" r="2" fill="#dc2626" opacity="0.2"/><circle cx="760" cy="56" r="2" fill="#dc2626" opacity="0.24"/><circle cx="780" cy="56" r="2" fill="#dc2626" opacity="0.28"/>
  <circle cx="700" cy="76" r="2" fill="#dc2626" opacity="0.08"/><circle cx="720" cy="76" r="2" fill="#dc2626" opacity="0.12"/><circle cx="740" cy="76" r="2" fill="#dc2626" opacity="0.16"/><circle cx="760" cy="76" r="2" fill="#dc2626" opacity="0.2"/><circle cx="780" cy="76" r="2" fill="#dc2626" opacity="0.24"/>
  <circle cx="720" cy="96" r="2" fill="#dc2626" opacity="0.06"/><circle cx="740" cy="96" r="2" fill="#dc2626" opacity="0.1"/><circle cx="760" cy="96" r="2" fill="#dc2626" opacity="0.14"/><circle cx="780" cy="96" r="2" fill="#dc2626" opacity="0.18"/>

  <!-- V4: Badge -->
  <rect x="24" y="24" width="72" height="72" rx="10" fill="#dc2626"/>
  <text x="60" y="52" font-family="Segoe UI, system-ui, sans-serif" font-size="11" font-weight="600" fill="#fca5a5" text-anchor="middle">SQL</text>
  <text x="60" y="78" font-family="Segoe UI, system-ui, sans-serif" font-size="26" font-weight="800" fill="#ffffff" text-anchor="middle">30</text>

  <!-- Title -->
  <text x="118" y="50" font-family="Segoe UI, system-ui, sans-serif" font-size="32" font-weight="800" fill="#ffffff">30 Day SQL Challenge</text>
  <text x="118" y="82" font-family="Segoe UI, system-ui, sans-serif" font-size="15" fill="#c4a0a6">From zero to SQL confident. Daily lessons, real data, real exercises.</text>

  <!-- Stats row -->
  <rect x="118" y="110" width="100" height="32" rx="6" fill="#dc2626" opacity="0.15"/>
  <text x="168" y="131" font-family="Segoe UI, system-ui, sans-serif" font-size="12" font-weight="600" fill="#ef4444" text-anchor="middle">30 Lessons</text>

  <rect x="230" y="110" width="100" height="32" rx="6" fill="#dc2626" opacity="0.15"/>
  <text x="280" y="131" font-family="Segoe UI, system-ui, sans-serif" font-size="12" font-weight="600" fill="#ef4444" text-anchor="middle">4 Projects</text>

  <rect x="342" y="110" width="100" height="32" rx="6" fill="#dc2626" opacity="0.15"/>
  <text x="392" y="131" font-family="Segoe UI, system-ui, sans-serif" font-size="12" font-weight="600" fill="#ef4444" text-anchor="middle">PostgreSQL</text>

  <rect x="454" y="110" width="100" height="32" rx="6" fill="#dc2626" opacity="0.15"/>
  <text x="504" y="131" font-family="Segoe UI, system-ui, sans-serif" font-size="12" font-weight="600" fill="#ef4444" text-anchor="middle">Free</text>

  <!-- Week progression -->
  <text x="40" y="178" font-family="Segoe UI, system-ui, sans-serif" font-size="11" fill="#c4a0a6">YOUR JOURNEY</text>

  <rect x="40" y="192" width="160" height="40" rx="6" fill="#dc2626" opacity="0.25"/>
  <text x="120" y="210" font-family="Segoe UI, system-ui, sans-serif" font-size="11" font-weight="600" fill="#fca5a5" text-anchor="middle">Week 1: Fundamentals</text>
  <text x="120" y="224" font-family="Segoe UI, system-ui, sans-serif" font-size="10" fill="#c4a0a6" text-anchor="middle">SELECT, WHERE, GROUP BY</text>

  <line x1="200" y1="212" x2="220" y2="212" stroke="#ef4444" stroke-width="1.5"/>
  <polygon points="218,208 224,212 218,216" fill="#ef4444"/>

  <rect x="224" y="192" width="160" height="40" rx="6" fill="#dc2626" opacity="0.25"/>
  <text x="304" y="210" font-family="Segoe UI, system-ui, sans-serif" font-size="11" font-weight="600" fill="#fca5a5" text-anchor="middle">Week 2: Transformation</text>
  <text x="304" y="224" font-family="Segoe UI, system-ui, sans-serif" font-size="10" fill="#c4a0a6" text-anchor="middle">NULLs, Functions, CTEs</text>

  <line x1="384" y1="212" x2="404" y2="212" stroke="#ef4444" stroke-width="1.5"/>
  <polygon points="402,208 408,212 402,216" fill="#ef4444"/>

  <rect x="408" y="192" width="160" height="40" rx="6" fill="#dc2626" opacity="0.25"/>
  <text x="488" y="210" font-family="Segoe UI, system-ui, sans-serif" font-size="11" font-weight="600" fill="#fca5a5" text-anchor="middle">Week 3: Relational</text>
  <text x="488" y="224" font-family="Segoe UI, system-ui, sans-serif" font-size="10" fill="#c4a0a6" text-anchor="middle">JOINs, UNION, Star Schema</text>

  <line x1="568" y1="212" x2="588" y2="212" stroke="#ef4444" stroke-width="1.5"/>
  <polygon points="586,208 592,212 586,216" fill="#ef4444"/>

  <rect x="592" y="192" width="160" height="40" rx="6" fill="#dc2626" opacity="0.25"/>
  <text x="672" y="210" font-family="Segoe UI, system-ui, sans-serif" font-size="11" font-weight="600" fill="#fca5a5" text-anchor="middle">Week 4: Advanced</text>
  <text x="672" y="224" font-family="Segoe UI, system-ui, sans-serif" font-size="10" fill="#c4a0a6" text-anchor="middle">Window Fns, Views, Capstone</text>

  <!-- Author -->
  <text x="40" y="264" font-family="Segoe UI, system-ui, sans-serif" font-size="12" fill="#c4a0a6">by <tspan fill="#ffffff" font-weight="600">Stephen | Data</tspan>  -  youtube.com/@sdw-online</text>
</svg>
