<svg xmlns="http://www.w3.org/2000/svg" viewBox="0 0 900 320" fill="none">
  <defs>
    <linearGradient id="wnbg" x1="450" y1="0" x2="900" y2="320" gradientUnits="userSpaceOnUse">
      <stop offset="0%" stop-color="#1a0a0e"/>
      <stop offset="100%" stop-color="#4c0519"/>
    </linearGradient>
    <filter id="glow2"><feGaussianBlur stdDeviation="2" result="blur"/><feMerge><feMergeNode in="blur"/><feMergeNode in="SourceGraphic"/></feMerge></filter>
  </defs>
  <rect width="900" height="320" rx="12" fill="url(#wnbg)"/>
  <rect x="1" y="1" width="898" height="318" rx="12" fill="none" stroke="#dc2626" stroke-width="1.5" opacity="0.35" filter="url(#glow2)"/>
  <circle cx="820" cy="16" r="2" fill="#dc2626" opacity="0.2"/><circle cx="840" cy="16" r="2" fill="#dc2626" opacity="0.25"/><circle cx="860" cy="16" r="2" fill="#dc2626" opacity="0.3"/><circle cx="880" cy="16" r="2" fill="#dc2626" opacity="0.35"/>
  <circle cx="840" cy="36" r="2" fill="#dc2626" opacity="0.15"/><circle cx="860" cy="36" r="2" fill="#dc2626" opacity="0.2"/><circle cx="880" cy="36" r="2" fill="#dc2626" opacity="0.25"/>
  <text x="450" y="38" font-family="Segoe UI, system-ui, sans-serif" font-size="20" font-weight="700" fill="#ffffff" text-anchor="middle">Where To Next?</text>
  <text x="450" y="58" font-family="Segoe UI, system-ui, sans-serif" font-size="12" fill="#c4a0a6" text-anchor="middle">You just finished Day 15: JOINs Part 1</text>
  <rect x="320" y="76" width="260" height="40" rx="8" fill="#dc2626" opacity="0.15"/>
  <rect x="320" y="76" width="260" height="40" rx="8" fill="none" stroke="#dc2626" stroke-width="1.5"/>
  <text x="450" y="101" font-family="Segoe UI, system-ui, sans-serif" font-size="13" font-weight="600" fill="#ffffff" text-anchor="middle">What do you want to do?</text>
  <line x1="450" y1="116" x2="450" y2="138" stroke="#ef4444" stroke-width="1.5"/>
  <line x1="130" y1="138" x2="770" y2="138" stroke="#ef4444" stroke-width="1.5"/>
  <circle cx="450" cy="138" r="3" fill="#ef4444"/>
  <circle cx="310" cy="138" r="3" fill="#ef4444"/>
  <circle cx="590" cy="138" r="3" fill="#ef4444"/>
  <circle cx="130" cy="138" r="3" fill="#ef4444" opacity="0.6"/>
  <circle cx="770" cy="138" r="3" fill="#ef4444" opacity="0.6"/>
  <line x1="310" y1="138" x2="310" y2="160" stroke="#ef4444" stroke-width="1.5"/>
  <line x1="590" y1="138" x2="590" y2="160" stroke="#ef4444" stroke-width="1.5"/>
  <line x1="130" y1="138" x2="130" y2="240" stroke="#ef4444" stroke-width="1" opacity="0.6"/>
  <line x1="770" y1="138" x2="770" y2="240" stroke="#ef4444" stroke-width="1" opacity="0.6"/>
  <rect x="190" y="160" width="240" height="52" rx="8" fill="#dc2626"/>
  <text x="310" y="182" font-family="Segoe UI, system-ui, sans-serif" font-size="12" font-weight="700" fill="#ffffff" text-anchor="middle">Day 16</text>
  <text x="310" y="202" font-family="Segoe UI, system-ui, sans-serif" font-size="11" fill="#fca5a5" text-anchor="middle">CROSS &amp; Self Joins</text>
  <rect x="470" y="160" width="240" height="52" rx="8" fill="#dc2626"/>
  <text x="590" y="182" font-family="Segoe UI, system-ui, sans-serif" font-size="12" font-weight="700" fill="#ffffff" text-anchor="middle">Day 15 exercises</text>
  <text x="590" y="202" font-family="Segoe UI, system-ui, sans-serif" font-size="11" fill="#fca5a5" text-anchor="middle"></text>
  <rect x="16" y="240" width="230" height="52" rx="8" fill="#dc2626" opacity="0.15"/>
  <rect x="16" y="240" width="230" height="52" rx="8" fill="none" stroke="#dc2626" stroke-width="1"/>
  <text x="131" y="262" font-family="Segoe UI, system-ui, sans-serif" font-size="11" font-weight="600" fill="#fca5a5" text-anchor="middle">Day 6 (Keys)</text>
  <text x="131" y="280" font-family="Segoe UI, system-ui, sans-serif" font-size="11" fill="#c4a0a6" text-anchor="middle"></text>
  <rect x="654" y="240" width="230" height="52" rx="8" fill="#dc2626" opacity="0.15"/>
  <rect x="654" y="240" width="230" height="52" rx="8" fill="none" stroke="#dc2626" stroke-width="1"/>
  <text x="769" y="262" font-family="Segoe UI, system-ui, sans-serif" font-size="11" font-weight="600" fill="#fca5a5" text-anchor="middle">Day 22</text>
  <text x="769" y="280" font-family="Segoe UI, system-ui, sans-serif" font-size="11" fill="#c4a0a6" text-anchor="middle">Jump to Week 4</text>
</svg>