<svg xmlns="http://www.w3.org/2000/svg" viewBox="0 0 800 200" fill="none">
  <defs>
    <linearGradient id="bg" x1="0" y1="0" x2="800" y2="200" gradientUnits="userSpaceOnUse">
      <stop offset="0%" stop-color="#1a0a0e"/>
      <stop offset="100%" stop-color="#2a1015"/>
    </linearGradient>
    <filter id="glow"><feGaussianBlur stdDeviation="2" result="blur"/><feMerge><feMergeNode in="blur"/><feMergeNode in="SourceGraphic"/></feMerge></filter>
  </defs>
  <rect width="800" height="200" rx="12" fill="url(#bg)"/>
  <rect x="1" y="1" width="798" height="198" rx="12" fill="none" stroke="#dc2626" stroke-width="1.5" opacity="0.35" filter="url(#glow)"/>
  <circle cx="720" cy="16" r="2" fill="#dc2626" opacity="0.2"/><circle cx="740" cy="16" r="2" fill="#dc2626" opacity="0.25"/><circle cx="760" cy="16" r="2" fill="#dc2626" opacity="0.3"/><circle cx="780" cy="16" r="2" fill="#dc2626" opacity="0.35"/>
  <circle cx="740" cy="36" r="2" fill="#dc2626" opacity="0.15"/><circle cx="760" cy="36" r="2" fill="#dc2626" opacity="0.2"/><circle cx="780" cy="36" r="2" fill="#dc2626" opacity="0.25"/>
  <!-- Day badge -->
  <rect x="24" y="20" width="56" height="28" rx="6" fill="#dc2626"/>
  <text x="52" y="39" font-family="Segoe UI, system-ui, sans-serif" font-size="13" font-weight="700" fill="#ffffff" text-anchor="middle">DAY 21</text>
  <!-- Title -->
  <text x="92" y="40" font-family="Segoe UI, system-ui, sans-serif" font-size="18" font-weight="700" fill="#ffffff">Project: SaaS Trial-to-Paid Conversion</text>
  <!-- Difficulty pill - away from corner dots -->
  <rect x="620" y="20" width="90" height="24" rx="12" fill="#ef4444" opacity="0.2"/>
  <text x="665" y="37" font-family="Segoe UI, system-ui, sans-serif" font-size="11" font-weight="600" fill="#ef4444" text-anchor="middle">Advanced</text>
  <!-- Bullet list - left aligned under title -->
  <text x="40" y="76" font-family="Segoe UI, system-ui, sans-serif" font-size="12" fill="#c4a0a6">What you'll learn:</text>
  <circle cx="48" cy="100" r="3" fill="#ef4444"/>
  <text x="60" y="104" font-family="Segoe UI, system-ui, sans-serif" font-size="12" fill="#fce4ec">SaaS metrics</text>
  <circle cx="48" cy="124" r="3" fill="#ef4444"/>
  <text x="60" y="128" font-family="Segoe UI, system-ui, sans-serif" font-size="12" fill="#fce4ec">Trial-to-paid funnel</text>
  <circle cx="48" cy="148" r="3" fill="#ef4444"/>
  <text x="60" y="152" font-family="Segoe UI, system-ui, sans-serif" font-size="12" fill="#fce4ec">Conversion analysis</text>
  <circle cx="48" cy="172" r="3" fill="#ef4444"/>
  <text x="60" y="176" font-family="Segoe UI, system-ui, sans-serif" font-size="12" fill="#fce4ec">Week 3 synthesis</text>
</svg>